<?xml version="1.0" encoding="utf-8"?>
<svg version="1.1" id="Layer_1" xmlns="http://www.w3.org/2000/svg" xmlns:xlink="http://www.w3.org/1999/xlink" x="0px" y="0px"
	 viewBox="0 0 85.4 89.5" style="enable-background:new 0 0 85.4 89.5;" xml:space="preserve">
	<style type="text/css">
		.st0{fill:#61C6C4;}
		.st1{fill:#2D9B93;}
	</style>
	<path class="st0" d="M70.1,21.7l-15,26.1L38.7,7.9c-0.2-0.4-0.5-0.7-0.8-0.8L20.6,0v72l16.3,4.4c0.8,0.2,1.6-0.4,1.6-1.2V42.1 l15.9,37.5c0.3,0.7,1.4,0.8,1.7,0.1l14.7-26.6v31.5c0,0.6,0.4,1.2,1,1.3l12.7,3.5c0.5,0.1,1-0.2,1-0.7V27.6c0-0.6-0.4-1.2-1-1.5	L72,21C71.3,20.7,70.4,21,70.1,21.7z" />
	<path class="st1" d="M16.2,72L2.1,76.2c-1,0.3-2.1-0.5-2.1-1.6V8.6c0-0.8,0.5-1.5,1.2-1.9l15-6.8L16.2,72C16.2,72,16.2,72,16.2,72z" />
</svg>
